<?xml version="1.0" standalone="no"?>
<!DOCTYPE svg PUBLIC "-//W3C//DTD SVG 20010904//EN"
 "http://www.w3.org/TR/2001/REC-SVG-20010904/DTD/svg10.dtd">
<svg version="1.0" xmlns="http://www.w3.org/2000/svg"
 width="265.000000pt" height="225.000000pt" viewBox="0 0 265.000000 225.000000"
 preserveAspectRatio="xMidYMid meet">
<metadata>
Created by potrace 1.16, written by Peter Selinger 2001-2019
</metadata>
<g transform="translate(0.000000,225.000000) scale(0.082813,-0.206422)"
fill="#000000" stroke="none">
<path d="M506 974 c-128 -31 -237 -114 -294 -225 -72 -140 -25 -317 111 -418
67 -50 86 -59 166 -82 172 -49 374 -1 494 117 l45 44 853 2 854 3 41 22 c87
47 125 127 104 220 -8 39 -20 60 -47 84 -78 68 -20 64 -957 67 l-850 3 -51 48
c-116 110 -301 156 -469 115z m229 -80 c245 -63 337 -311 175 -473 -218 -218
-630 -95 -630 190 0 136 93 241 251 283 71 19 132 19 204 0z m918 -284 l55
-100 -31 0 c-29 0 -35 6 -66 65 -18 36 -37 65 -42 65 -4 0 -25 -29 -46 -65
-32 -54 -42 -65 -65 -65 -34 0 -34 4 -3 55 13 22 34 58 46 80 31 58 39 65 69
65 25 0 34 -11 83 -100z m286 76 c27 -25 27 -54 -1 -83 l-22 -23 34 -35 34
-35 -36 0 c-29 0 -42 7 -67 35 -28 32 -35 35 -86 35 -48 0 -55 2 -55 20 0 18
7 20 64 20 72 0 96 6 96 25 0 19 -24 25 -96 25 -58 0 -64 2 -64 21 0 20 4 21
89 17 70 -2 93 -7 110 -22z m614 -70 c53 -51 97 -96 97 -100 0 -3 -12 -6 -27
-6 -20 0 -45 17 -95 67 l-68 67 0 -67 0 -67 -30 0 -30 0 0 100 0 100 28 0 c20
0 50 -22 125 -94z m-474 50 c9 -11 10 -20 1 -36 -26 -48 42 -94 105 -71 32 11
65 7 65 -9 0 -13 -43 -37 -80 -43 -101 -19 -186 64 -145 142 17 34 36 39 54
17z"/>
<path d="M420 745 l0 -44 73 -3 c56 -2 72 -6 72 -18 0 -8 -9 -15 -20 -15 -28
0 -45 -13 -39 -30 4 -8 -1 -18 -10 -21 -20 -8 -21 -38 -2 -54 8 -6 16 -21 18
-33 2 -16 10 -22 28 -22 23 0 25 -4 28 -53 l3 -52 63 0 c35 0 67 5 74 12 16
16 16 286 0 339 l-11 39 -139 0 -138 0 0 -45z"/>
</g>
</svg>
